<svg width="41" height="41" viewBox="0 0 41 41" fill="none" xmlns="http://www.w3.org/2000/svg">
<path d="M23.7404 35.0985L20.4071 38.4318L17.0737 35.0985H8.73207C7.85023 35.0985 7.0045 34.7482 6.38094 34.1246C5.75739 33.501 5.40707 32.6553 5.40707 31.7735V8.42346C5.40707 6.5868 6.89541 5.09846 8.73207 5.09846H32.0821C33.9187 5.09846 35.4071 6.5868 35.4071 8.42346V31.7735C35.4071 32.6553 35.0568 33.501 34.4332 34.1246C33.8096 34.7482 32.9639 35.0985 32.0821 35.0985H23.7404ZM32.0737 31.7651V8.4318H8.74041V31.7651H18.4537L20.4071 33.7185L22.3604 31.7651H32.0737ZM13.6937 30.3985C12.6687 29.9545 11.691 29.4084 10.7754 28.7685C11.8325 27.1302 13.2837 25.7832 14.9961 24.8509C16.7084 23.9185 18.6273 23.4306 20.5771 23.4318C24.5771 23.4318 28.1054 25.4435 30.2071 28.5101C29.309 29.1745 28.3464 29.7468 27.3337 30.2185C26.5619 29.1485 25.5467 28.2773 24.3719 27.6769C23.1971 27.0764 21.8964 26.7639 20.5771 26.7651C17.7187 26.7651 15.1937 28.2051 13.6937 30.3985V30.3985ZM20.4071 21.7651C19.641 21.7651 18.8825 21.6142 18.1748 21.3211C17.467 21.0279 16.824 20.5983 16.2823 20.0566C15.7406 19.5149 15.3109 18.8719 15.0178 18.1641C14.7246 17.4564 14.5737 16.6978 14.5737 15.9318C14.5737 15.1658 14.7246 14.4072 15.0178 13.6995C15.3109 12.9917 15.7406 12.3487 16.2823 11.807C16.824 11.2653 17.467 10.8357 18.1748 10.5425C18.8825 10.2493 19.641 10.0985 20.4071 10.0985C21.9542 10.0985 23.4379 10.713 24.5319 11.807C25.6258 12.901 26.2404 14.3847 26.2404 15.9318C26.2404 17.4789 25.6258 18.9626 24.5319 20.0566C23.4379 21.1505 21.9542 21.7651 20.4071 21.7651ZM20.4071 18.4318C21.0701 18.4318 21.706 18.1684 22.1748 17.6996C22.6437 17.2307 22.9071 16.5948 22.9071 15.9318C22.9071 15.2688 22.6437 14.6329 22.1748 14.164C21.706 13.6952 21.0701 13.4318 20.4071 13.4318C19.744 13.4318 19.1081 13.6952 18.6393 14.164C18.1705 14.6329 17.9071 15.2688 17.9071 15.9318C17.9071 16.5948 18.1705 17.2307 18.6393 17.6996C19.1081 18.1684 19.744 18.4318 20.4071 18.4318Z" fill="white"/>
</svg>
