<svg width="41" height="41" viewBox="0 0 41 41" fill="none" xmlns="http://www.w3.org/2000/svg">
<path d="M22.0737 32.5313H32.0737V17.4946L20.4071 8.42128L8.74041 17.4946V32.5313H18.7404V22.5313H22.0737V32.5313ZM35.4071 34.1979C35.4071 34.64 35.2315 35.0639 34.9189 35.3765C34.6064 35.689 34.1824 35.8646 33.7404 35.8646H7.07374C6.63171 35.8646 6.20779 35.689 5.89523 35.3765C5.58267 35.0639 5.40707 34.64 5.40707 34.1979V16.6813C5.4069 16.4273 5.46477 16.1766 5.57627 15.9484C5.68777 15.7203 5.84994 15.5206 6.05041 15.3646L19.3837 4.99462C19.6763 4.76702 20.0364 4.64346 20.4071 4.64346C20.7777 4.64346 21.1378 4.76702 21.4304 4.99462L34.7637 15.3646C34.9642 15.5206 35.1264 15.7203 35.2379 15.9484C35.3494 16.1766 35.4073 16.4273 35.4071 16.6813V34.1979V34.1979Z" fill="white"/>
</svg>
