<svg width="30" height="25" viewBox="0 0 30 25" fill="none" xmlns="http://www.w3.org/2000/svg">
<path d="M1.5 0H28.5C28.8978 0 29.2794 0.146329 29.5607 0.406796C29.842 0.667263 30 1.02053 30 1.38889V23.6111C30 23.9795 29.842 24.3327 29.5607 24.5932C29.2794 24.8537 28.8978 25 28.5 25H1.5C1.10218 25 0.720644 24.8537 0.43934 24.5932C0.158035 24.3327 0 23.9795 0 23.6111V1.38889C0 1.02053 0.158035 0.667263 0.43934 0.406796C0.720644 0.146329 1.10218 0 1.5 0V0ZM27 5.88611L15.108 15.7472L3 5.85556V22.2222H27V5.88611ZM3.7665 2.77778L15.0915 12.0306L26.253 2.77778H3.7665Z" fill="white"/>
</svg>
