<svg width="24" height="24" viewBox="0 0 24 24" fill="none" xmlns="http://www.w3.org/2000/svg">
<path d="M13 2V3.278L18 4.946L21.632 3.736L22.265 5.632L19.233 6.643L22.329 15.155C21.7695 15.739 21.0974 16.2036 20.3534 16.5207C19.6094 16.8378 18.8088 17.0009 18 17C17.1912 17.0009 16.3906 16.8379 15.6466 16.5208C14.9025 16.2037 14.2305 15.7391 13.671 15.155L16.765 6.643L13 5.387V19H17V21H6.99999V19H11V5.387L7.23199 6.643L10.328 15.155C9.76874 15.7391 9.09688 16.2037 8.35299 16.5209C7.60911 16.838 6.80865 17.001 5.99999 17C5.19119 17.0009 4.39059 16.8379 3.64655 16.5208C2.90251 16.2037 2.23046 15.7391 1.67099 15.155L4.76499 6.643L1.73499 5.633L2.36799 3.735L5.99999 4.945L11 3.278V2H13ZM18 9.103L16.042 14.489C16.6396 14.8254 17.3142 15.0014 18 15C18.7 15 19.37 14.82 19.958 14.49L18 9.102V9.103ZM5.99999 9.103L4.04199 14.489C4.63965 14.8254 5.31417 15.0014 5.99999 15C6.69999 15 7.36999 14.82 7.95799 14.49L5.99999 9.102V9.103Z" fill="white"/>
</svg>
